<svg id="Layer_1" data-name="Layer 1" xmlns="http://www.w3.org/2000/svg" xmlns:xlink="http://www.w3.org/1999/xlink" viewBox="0 0 1024.81 1024.81"><defs><style>.cls-1{fill:#121619;}.cls-2{fill:#fff;}.cls-3{fill:url(#linear-gradient);}.cls-4{fill:url(#linear-gradient-2);}</style><linearGradient id="linear-gradient" x1="476.28" y1="334.18" x2="476.28" y2="532.91" gradientUnits="userSpaceOnUse"><stop offset="0.13" stop-color="#fff"/><stop offset="0.47" stop-color="#fdfdfd"/><stop offset="0.59" stop-color="#f6f6f6"/><stop offset="0.68" stop-color="#eaeaea"/><stop offset="0.76" stop-color="#d9d9d9"/><stop offset="0.82" stop-color="#c3c3c3"/><stop offset="0.88" stop-color="#a7a7a7"/><stop offset="0.93" stop-color="#868686"/><stop offset="0.98" stop-color="#626262"/><stop offset="1" stop-color="#4d4d4d"/></linearGradient><linearGradient id="linear-gradient-2" x1="421.7" y1="768.71" x2="421.7" y2="624.75" gradientUnits="userSpaceOnUse"><stop offset="0.36" stop-color="#fff" stop-opacity="0"/><stop offset="0.73" stop-color="#7c7c7c" stop-opacity="0.64"/><stop offset="1" stop-color="#333"/></linearGradient></defs><circle class="cls-1" cx="512.4" cy="512.4" r="512.4"/><path class="cls-2" d="M1060.43,332.92,907.25,180c-31.46-31.71-69.82-47.31-114.83-47.31-44.75,0-82.85,15.6-114.57,47.31L523.65,334.2l-5.37,5.37L503.7,354.14l-8.19,8.19c-5.36,5.37-10.74,10.48-15.85,15.85-4.86,4.86-9.21,8.95-12,12l-48.33,48.34C403.45,454.39,387.85,470,372,485.85c-1,1-2.56,2.3-4.35,4.34-1.54,1.54-3.07,3.33-4.61,5.12s-3.32,3.84-4.85,5.88c-1.79,2.05-3.33,4.35-5.12,6.65a141.77,141.77,0,0,0-12.27,21,48.1,48.1,0,0,1-7.68-5.63l-37.59-37.33c-10.48-10.74-16.11-23.53-16.11-38.11,0-15.09,5.63-27.62,16.11-38.61L448.46,256.2c10.74-10.49,23.53-16.11,38.36-16.11a8.91,8.91,0,0,1,2.56.25c12,1.28,6.65-.51,15.85,3.07,2.82,1,8.7,1.79,19.44,12.28l24,24.29,76.72-76.21L601.65,180c-31.72-31.71-69.82-47.31-114.83-47.31a161.53,161.53,0,0,0-25.32,1.79c-34,4.86-63.93,19.94-89.25,45.52L219.07,332.92c-31.46,31.45-47.57,69.56-47.57,114.82,0,44.76,16.11,82.86,47.57,114.57l38.36,38.11c16.87,16.88,38.87,29.15,66.49,36.06a30.36,30.36,0,0,0,4.6,1c.26,1,.51,2.55,1,4.35.26,1,.51,1.79.77,2.55.77,2.82,2.05,7.42,3.58,11.77.77,2.3,1.79,4.6,2.56,6.9a118.58,118.58,0,0,0,11.76,22.51c1.79,2.81,3.07,4.86,3.84,5.88a3.09,3.09,0,0,0,.51.77c7.93,11.76,14.06,17.64,38.1,41.68l34.78,34.78,99.48,99.48c23.53,23.53,50.64,38.62,81.33,44.24a157.14,157.14,0,0,0,33.24,3.07c11.51,0,22.76-.76,33.25-3.07A109.32,109.32,0,0,0,693.2,907H694c22.24-7.93,42.45-20.71,60.6-38.87L907.5,715.24a157.9,157.9,0,0,0,34.27-50.12,148.22,148.22,0,0,0,11.51-42.71,153,153,0,0,0,1.53-21.74c0-25.83-4.85-48.84-15.59-70.33-7.42-16.11-18.16-30.94-31.72-44.49l-38.1-38.11c-16.88-16.88-39.13-29.15-66.75-36.06-20.46-5.62-41.94-6.39-64.95-2.81l-209.19,73.4c2.81-2.82,23.78-24,23.78-24,.25-.26,11.76-11.51,24.29-24.3l11-11c12.79-12.53,24-24,24.3-24.3L754.32,256.2c10.74-10.49,23.53-16.11,38.1-16.11,15.09,0,27.62,5.62,38.62,16.11L983.71,409.13c10.74,11,16.11,23.52,16.37,38.61a21.39,21.39,0,0,1-.77,5.63c-1,12.27-6.13,23-15.6,32.48l-23.52,23.52,76.46,76.73,23.78-23.79c30.18-30.43,46-66.49,47.06-108.94a40.52,40.52,0,0,0,.25-5.63C1107.74,402.48,1091.89,364.37,1060.43,332.92ZM495,493.78l6.65-2a9.08,9.08,0,0,0-2.81,1l-17.39,5.88C485.29,497.36,489.89,495.82,495,493.78Zm-24.55,8.69c-1.79.77-3.58,1.28-5.11,2l-12,4.09Zm-39.89,14.07q-2.69,1.14-6.14,2.3L409.33,524Zm315.58.51a69.4,69.4,0,0,1,16.62-2.3c12.27-1,22.5,2.55,30.69,10.22L831,562.31a47.72,47.72,0,0,1,10.48,14.83,49.14,49.14,0,0,1,5.63,23.53A56.13,56.13,0,0,1,831,638.78L678.11,792c-3.84,3.58-7.67,6.91-12,8.7-8.18,5.11-16.62,7.16-26.34,7.16-14.83,0-27.36-5.37-38.1-15.86l-12.79-12.79h-.26L515,705.52l-4.86-4.86-18.41-18.41-15.35-15.34L460.22,650.8s-6.9-6.4-13.29-13.3a27.51,27.51,0,0,1-3.33-4.35,34.55,34.55,0,0,1-3.07-4.35c-.25-.51-.51-.76-.77-1.28a6.83,6.83,0,0,1-1.27-2.81Z" transform="translate(-127.22 0.81)"/><path class="cls-3" d="M340.7,528.75a91.13,91.13,0,0,0,35.49,3.76c7.82-.77,13.85-2.45,23.29-5.14a300.66,300.66,0,0,0,31-10.85c5.8-2.29,1.14-.35,50.9-17.76,11.19-3.92,27.25-9.55,46.86-16.49l24.08-24.08,59.51-59.51-88.33-64.5-55.92,55.9c-49.35,49.36-47.56,47.64-48.78,48.82-15.91,15.36-30.92,31.65-46.88,47a145.65,145.65,0,0,0-16.64,18.64A144.09,144.09,0,0,0,340.7,528.75Z" transform="translate(-127.22 0.81)"/><path class="cls-4" d="M328.53,637.48c4.61,1.1,8.59,1.8,11.68,2.26.6.09,3.38.49,7.13.86,4.4.43,8.16.61,11,.69a165.06,165.06,0,0,0,22.57-1s2.54-.28,5.11-.64c16.27-2.3,49.38-13.87,52.35-14.92a51.19,51.19,0,0,0,6.87,10.72c.68.81,1.22,1.42,1.68,1.91,6.51,7.13,13.38,13.44,13.38,13.45,5.55,5.1,10.67,10.66,16,16l15.35,15.35,8.36,8.36,14.88,14.88-89.43,63.29c-15.51-15.57-27.62-27.65-34.77-34.77-24.15-24.05-30.17-29.83-38.23-41.65,0,0-12.06-17.69-18.61-36.21-2.47-7-4.3-14.3-4.3-14.31C329.09,640,328.75,638.48,328.53,637.48Z" transform="translate(-127.22 0.81)"/><path class="cls-2" d="M323.83,639.12" transform="translate(-127.22 0.81)"/></svg>